<svg xmlns="http://www.w3.org/2000/svg" width="377" height="307" fill="none" viewBox="0 0 377 307">
  <path fill="#fff" d="M57 96.5a28.371 28.371 0 0 1-5.411 16.712c-4.785 6.599-12.33 11.067-20.94 11.708-.71.053-1.426.08-2.149.08C12.76 125 0 112.24 0 96.5S12.76 68 28.5 68 57 80.76 57 96.5ZM42 254h294v28c0 13.807-11.193 25-25 25H67c-13.807 0-25-11.193-25-25v-28Z"/>
  <path fill="#fff" d="M40 232h295.5l13-107c-9.648 0-18.176-4.794-23.332-12.129l-65.308 35.743a5 5 0 0 1-6.772-1.96l-51.516-92.822A28.38 28.38 0 0 1 188.5 57c-4.1 0-7.998-.866-11.52-2.424l-52.08 92.177a5 5 0 0 1-6.705 1.953l-66.606-35.494c-4.785 6.599-12.33 11.067-20.94 11.708L40 232Z"/>
  <path fill="#fff" d="M348.5 125c15.74 0 28.5-12.76 28.5-28.5S364.24 68 348.5 68 320 80.76 320 96.5a28.37 28.37 0 0 0 5.168 16.371C330.324 120.206 338.852 125 348.5 125ZM188.5 0C172.76 0 160 12.76 160 28.5c0 11.64 6.978 21.65 16.98 26.076A28.397 28.397 0 0 0 188.5 57a28.38 28.38 0 0 0 13.072-3.168C210.736 49.094 217 39.528 217 28.5 217 12.76 204.24 0 188.5 0Z"/>
</svg>
