<svg xmlns="http://www.w3.org/2000/svg" width="20" height="20" fill="none" viewBox="0 0 20 20">
  <path stroke="#fff" d="M18.492 1.524a1.74 1.74 0 0 0-1.738-.453L2.267 5.284a1.727 1.727 0 0 0-1.245 1.369c-.128.675.319 1.533.902 1.892l4.53 2.784a1.174 1.174 0 0 0 1.449-.174l5.187-5.22a.66.66 0 0 1 .954 0 .687.687 0 0 1 0 .961l-5.196 5.22c-.385.387-.457.99-.174 1.457l2.768 4.575a1.72 1.72 0 0 0 1.495.852c.072 0 .153 0 .225-.01.702-.09 1.26-.57 1.467-1.25l4.295-14.468a1.768 1.768 0 0 0-.432-1.748"/>
</svg>
